<svg width="1920" height="465" viewBox="0 0 1920 465" fill="none" xmlns="http://www.w3.org/2000/svg">
<g clip-path="url(#clip0_393_2)">
<rect width="1920" height="465" fill="white"/>
<rect width="1920" height="465" fill="url(#paint0_linear_393_2)"/>
<path d="M634.156 232.828L839.516 0V465.001L634.156 232.828Z" fill="#222831"/>
<path d="M839.516 0L1920 0.000876913V465.001H839.516V0Z" fill="#222831"/>
<path d="M704.152 233.376L903.701 0V465L704.152 233.376Z" fill="#58585A"/>
<path d="M903.701 0H1920V465H903.701V0Z" fill="#58585A"/>
<path d="M775.936 232.03L969.007 -0.845703L969.217 464.999L775.936 232.03Z" fill="#D9D9D9"/>
<path d="M969.007 -0.845703L1920 -0.000162721V465L969.217 464.999L969.007 -0.845703Z" fill="#D9D9D9"/>
<path d="M858.14 233.05L1042.62 0V465L858.14 233.05Z" fill="white"/>
<path d="M1042.62 0H1920V465H1042.62V0Z" fill="white"/>
<g clip-path="url(#clip1_393_2)">
<path d="M1137.48 179.634L1126.26 201.754C1118.19 195.886 1102.04 176.023 1078.26 179.634C1055.83 179.634 1041.93 194.531 1033.4 208.526C1024.88 222.52 1028.02 249.154 1028.02 251.863C1028.02 254.03 1026.82 256.377 1026.22 257.28L1014.11 269.92C1004.24 260.44 997.963 228.389 1007.83 204.011C1017.7 179.634 1039.23 155.257 1078.26 153.903C1109.48 152.819 1130.75 170.606 1137.48 179.634Z" fill="#58585A"/>
<path d="M1066.15 236.967L1007.83 295.201C1006.02 297.007 1007.38 298.963 1008.28 299.715C1009.48 300.919 1012.23 303.597 1013.66 304.681C1015.1 305.764 1016.65 305.132 1017.25 304.681L1077.36 244.641C1078.8 243.196 1077.81 240.729 1077.36 239.675C1076.62 238.772 1074.58 236.605 1072.43 235.161C1070.28 233.716 1067.35 235.763 1066.15 236.967Z" fill="#FD7014"/>
<path d="M1116.84 301.52C1087.77 317.41 1054.79 306.636 1041.93 299.263L1051.35 288.88C1053.14 286.773 1058.25 282.831 1064.36 283.914C1131.64 292.943 1133.89 232.451 1135.23 220.263C1144.21 169.703 1182.79 154.354 1211.5 153.903C1240.21 153.451 1289.55 177.828 1289.1 230.194C1288.65 282.56 1246.49 309.194 1211.5 310.097C1183.5 310.819 1161.55 293.545 1154.07 284.817L1167.08 262.697C1173.66 270.071 1191.76 284.817 1211.5 284.817C1251.33 283.733 1263.38 247.951 1264.43 230.194C1263.53 213.792 1251.69 180.717 1211.5 179.634C1171.3 178.551 1158.56 221.316 1157.21 242.834C1155.87 255.775 1145.91 285.629 1116.84 301.52Z" fill="#58585A"/>
<path d="M1137.48 179.634L1126.26 201.754C1118.19 195.886 1102.04 176.023 1078.26 179.634C1055.83 179.634 1041.93 194.531 1033.4 208.526C1024.88 222.52 1028.02 249.154 1028.02 251.863C1028.02 254.03 1026.82 256.377 1026.22 257.28L1014.11 269.92C1004.24 260.44 997.963 228.389 1007.83 204.011C1017.7 179.634 1039.23 155.257 1078.26 153.903C1109.48 152.819 1130.75 170.606 1137.48 179.634Z" stroke="#58585A"/>
<path d="M1066.15 236.967L1007.83 295.201C1006.02 297.007 1007.38 298.963 1008.28 299.715C1009.48 300.919 1012.23 303.597 1013.66 304.681C1015.1 305.764 1016.65 305.132 1017.25 304.681L1077.36 244.641C1078.8 243.196 1077.81 240.729 1077.36 239.675C1076.62 238.772 1074.58 236.605 1072.43 235.161C1070.28 233.716 1067.35 235.763 1066.15 236.967Z" stroke="#FD7014"/>
<path d="M1116.84 301.52C1087.77 317.41 1054.79 306.636 1041.93 299.263L1051.35 288.88C1053.14 286.773 1058.25 282.831 1064.36 283.914C1131.64 292.943 1133.89 232.451 1135.23 220.263C1144.21 169.703 1182.79 154.354 1211.5 153.903C1240.21 153.451 1289.55 177.828 1289.1 230.194C1288.65 282.56 1246.49 309.194 1211.5 310.097C1183.5 310.819 1161.55 293.545 1154.07 284.817L1167.08 262.697C1173.66 270.071 1191.76 284.817 1211.5 284.817C1251.33 283.733 1263.38 247.951 1264.43 230.194C1263.53 213.792 1251.69 180.717 1211.5 179.634C1171.3 178.551 1158.56 221.316 1157.21 242.834C1155.87 255.775 1145.91 285.629 1116.84 301.52Z" stroke="#58585A"/>
</g>
</g>
<defs>
<linearGradient id="paint0_linear_393_2" x1="433.5" y1="233" x2="1920" y2="233" gradientUnits="userSpaceOnUse">
<stop stop-color="#FD7014"/>
<stop offset="1"/>
</linearGradient>
<clipPath id="clip0_393_2">
<rect width="1920" height="465" fill="white"/>
</clipPath>
<clipPath id="clip1_393_2">
<rect width="288" height="158" fill="white" transform="translate(1002 153)"/>
</clipPath>
</defs>
</svg>
