<svg width="270" height="154" viewBox="0 0 270 154" fill="none" xmlns="http://www.w3.org/2000/svg">
<rect width="270" height="154" rx="21" fill="white"/>
<g clip-path="url(#clip0_11_171)">
<path d="M128.551 40.5429L120.724 55.9429C115.089 51.8572 103.818 38.0287 87.2243 40.5429C71.5701 40.5429 61.8645 50.9144 55.9159 60.6572C49.9673 70.4001 52.1589 88.9429 52.1589 90.8287C52.1589 92.3372 51.324 93.9715 50.9065 94.6001L42.4533 103.4C35.5654 96.8001 31.1822 74.4858 38.0701 57.5144C44.9579 40.5429 59.986 23.5715 87.2243 22.6287C109.015 21.8744 123.855 34.2572 128.551 40.5429Z" fill="#58585A"/>
<path d="M78.771 80.4571L38.0701 121C36.808 122.257 37.753 123.619 38.3832 124.143C39.2181 124.981 41.1383 126.846 42.1402 127.6C43.1421 128.354 44.2274 127.914 44.6449 127.6L86.5981 85.7999C87.6 84.7942 86.9112 83.0761 86.5981 82.3428C86.0763 81.7142 84.657 80.2056 83.1542 79.1999C81.6514 78.1942 79.6059 79.619 78.771 80.4571Z" fill="#FD7014"/>
<path d="M114.15 125.4C93.8617 136.463 70.8395 128.962 61.8645 123.829L68.4393 116.6C69.6916 115.134 73.2607 112.389 77.5187 113.143C124.481 119.429 126.047 77.3143 126.986 68.8286C133.248 33.6286 160.173 22.9428 180.21 22.6286C200.248 22.3143 234.687 39.2857 234.374 75.7428C234.061 112.2 204.631 130.743 180.21 131.371C160.674 131.874 145.353 119.848 140.136 113.771L149.215 98.3714C153.807 103.505 166.435 113.771 180.21 113.771C208.012 113.017 216.423 88.1049 217.154 75.7428C216.528 64.3238 208.263 41.2971 180.21 40.5428C152.158 39.7886 143.266 69.5619 142.327 84.5428C141.388 93.5522 134.437 114.337 114.15 125.4Z" fill="#58585A"/>
<path d="M128.551 40.5429L120.724 55.9429C115.089 51.8572 103.818 38.0287 87.2243 40.5429C71.5701 40.5429 61.8645 50.9144 55.9159 60.6572C49.9673 70.4001 52.1589 88.9429 52.1589 90.8287C52.1589 92.3372 51.324 93.9715 50.9065 94.6001L42.4533 103.4C35.5654 96.8001 31.1822 74.4858 38.0701 57.5144C44.9579 40.5429 59.986 23.5715 87.2243 22.6287C109.015 21.8744 123.855 34.2572 128.551 40.5429Z" stroke="#58585A"/>
<path d="M78.771 80.4571L38.0701 121C36.808 122.257 37.753 123.619 38.3832 124.143C39.2181 124.981 41.1383 126.846 42.1402 127.6C43.1421 128.354 44.2274 127.914 44.6449 127.6L86.5981 85.7999C87.6 84.7942 86.9112 83.0761 86.5981 82.3428C86.0763 81.7142 84.657 80.2056 83.1542 79.1999C81.6514 78.1942 79.6059 79.619 78.771 80.4571Z" stroke="#FD7014"/>
<path d="M114.15 125.4C93.8617 136.463 70.8395 128.962 61.8645 123.829L68.4393 116.6C69.6916 115.134 73.2607 112.389 77.5187 113.143C124.481 119.429 126.047 77.3143 126.986 68.8286C133.248 33.6286 160.173 22.9428 180.21 22.6286C200.248 22.3143 234.687 39.2857 234.374 75.7428C234.061 112.2 204.631 130.743 180.21 131.371C160.674 131.874 145.353 119.848 140.136 113.771L149.215 98.3714C153.807 103.505 166.435 113.771 180.21 113.771C208.012 113.017 216.423 88.105 217.154 75.7428C216.528 64.3238 208.263 41.2971 180.21 40.5428C152.158 39.7886 143.266 69.5619 142.327 84.5428C141.388 93.5522 134.437 114.337 114.15 125.4Z" stroke="#58585A"/>
</g>
<defs>
<clipPath id="clip0_11_171">
<rect width="201" height="110" fill="white" transform="translate(34 22)"/>
</clipPath>
</defs>
</svg>
