<svg width="62" height="60" viewBox="0 0 62 60" fill="none" xmlns="http://www.w3.org/2000/svg">
<ellipse cx="30.5862" cy="29.6844" rx="30.5862" ry="29.6844" fill="#FD7014"/>
<g clip-path="url(#clip0_8_21)">
<path d="M30.5861 29.6844C32.8645 29.6844 35.0496 28.8098 36.6607 27.2529C38.2718 25.6961 39.1769 23.5845 39.1769 21.3828C39.1769 19.1811 38.2718 17.0696 36.6607 15.5127C35.0496 13.9559 32.8645 13.0813 30.5861 13.0813C28.3077 13.0813 26.1226 13.9559 24.5115 15.5127C22.9004 17.0696 21.9953 19.1811 21.9953 21.3828C21.9953 23.5845 22.9004 25.6961 24.5115 27.2529C26.1226 28.8098 28.3077 29.6844 30.5861 29.6844ZM27.5189 32.7975C20.9081 32.7975 15.5522 37.973 15.5522 44.3613C15.5522 45.4249 16.4449 46.2875 17.5456 46.2875H43.6267C44.7274 46.2875 45.62 45.4249 45.62 44.3613C45.62 37.973 40.2642 32.7975 33.6533 32.7975H27.5189Z" fill="#222831"/>
</g>
<defs>
<clipPath id="clip0_8_21">
<rect width="30.0677" height="33.2062" fill="white" transform="translate(15.5522 13.0813)"/>
</clipPath>
</defs>
</svg>
