<svg width="62" height="60" viewBox="0 0 62 60" fill="none" xmlns="http://www.w3.org/2000/svg">
<ellipse cx="31.4139" cy="29.6844" rx="30.5862" ry="29.6844" fill="#FD7014"/>
<g clip-path="url(#clip0_8_21)">
<path d="M31.4138 29.6844C33.6922 29.6844 35.8773 28.8098 37.4884 27.2529C39.0995 25.6961 40.0046 23.5845 40.0046 21.3828C40.0046 19.1811 39.0995 17.0696 37.4884 15.5127C35.8773 13.9559 33.6922 13.0813 31.4138 13.0813C29.1354 13.0813 26.9503 13.9559 25.3392 15.5127C23.7281 17.0696 22.823 19.1811 22.823 21.3828C22.823 23.5845 23.7281 25.6961 25.3392 27.2529C26.9503 28.8098 29.1354 29.6844 31.4138 29.6844ZM28.3466 32.7975C21.7358 32.7975 16.3799 37.973 16.3799 44.3613C16.3799 45.4249 17.2726 46.2875 18.3733 46.2875H44.4544C45.5551 46.2875 46.4477 45.4249 46.4477 44.3613C46.4477 37.973 41.0919 32.7975 34.481 32.7975H28.3466Z" fill="#222831"/>
</g>
<defs>
<clipPath id="clip0_8_21">
<rect width="30.0677" height="33.2062" fill="white" transform="translate(16.3799 13.0813)"/>
</clipPath>
</defs>
</svg>
